<svg width="54" height="56" viewBox="0 0 54 56" fill="none" xmlns="http://www.w3.org/2000/svg">
<rect x="0.65" y="0.65" width="52.7" height="54.7" rx="26.35" fill="#0E1D34"/>
<path d="M16.2035 43.5429C16.2625 42.3848 16.292 41.4248 16.292 40.6629C16.3805 39.261 16.4248 37.7829 16.4248 36.2286V14.8343C16.0413 14.8343 15.4071 14.9105 14.5221 15.0629C13.6372 15.2152 12.8555 15.3676 12.177 15.52L12 15.2457L13.0177 12H20.4513V12.4571C20.4218 13.859 20.3776 15.1695 20.3186 16.3886C20.2596 17.6381 20.2301 18.7657 20.2301 19.7714V26.3086H25.5398L30.4956 20C31.233 19.0857 31.9263 18.2019 32.5752 17.3486C33.2242 16.4952 33.8584 15.6267 34.4779 14.7429C34.1829 14.7429 33.7404 14.7886 33.1504 14.88C32.5605 14.9714 31.9558 15.0933 31.3363 15.2457L29.9646 15.52L29.7876 15.2457L30.8053 12H40.4956V12.4114C39.9351 13.0514 39.3894 13.6914 38.8584 14.3314C38.3274 14.9714 37.7965 15.6114 37.2655 16.2514C36.764 16.8914 36.2478 17.5467 35.7168 18.2171C35.2153 18.8571 34.6991 19.5124 34.1681 20.1829L28.5044 27.36L35.8053 36.5943C37.7227 38.88 39.7876 41.181 42 43.4971V44H31.5133L30.4513 40.7543L30.6283 40.48C30.8643 40.541 31.115 40.6171 31.3805 40.7086C31.6755 40.7695 31.9852 40.861 32.3097 40.9829C32.8702 41.1352 33.4159 41.3029 33.9469 41.4857C34.5074 41.6381 34.9646 41.7143 35.3186 41.7143L25.6726 29.6914H20.2301V36.2286C20.2301 37.2343 20.2596 38.3619 20.3186 39.6114C20.3776 40.8305 20.4218 42.141 20.4513 43.5429V44H16.2035V43.5429Z" fill="white"/>
<rect x="0.65" y="0.65" width="52.7" height="54.7" rx="26.35" stroke="white" stroke-width="1.3"/>
</svg>
