<svg width="140" height="140" viewBox="0 0 140 140" fill="none" xmlns="http://www.w3.org/2000/svg">
<g clip-path="url(#clip0_748_343)">
<path d="M0.00014019 135.15L10.5001 129.439L37.9839 107.875L27.4839 113.586L0.00014019 135.15Z" fill="#7A5E3B"/>
<path d="M16.6513 101.95L27.1535 96.2366L36.9863 86.4082L26.4841 92.122L16.6513 101.95Z" fill="#7A5E3B"/>
<path d="M30.4785 96.9826L40.9785 91.271L27.1535 96.2366L16.6513 101.95L30.4785 96.9826Z" fill="#9C774B"/>
<path d="M26.4841 92.1221L16.6513 101.951L30.4785 96.9827L26.4841 92.1221Z" fill="#CFD0D0"/>
<path d="M30.4785 96.9826L40.9785 91.271L36.9863 86.4082L26.4841 92.122L30.4785 96.9826Z" fill="#969696"/>
<path d="M33.2654 100.369L43.7676 94.6554L35.6913 84.8335L25.1913 90.5473L33.2654 100.369Z" fill="#99754A"/>
<path d="M20.6063 115.248L31.1063 109.537L43.7676 94.6553L33.2654 100.369L20.6063 115.248Z" fill="#7A5E3B"/>
<path d="M34.4158 101.769L44.918 96.0553L43.7673 94.6553L33.2652 100.369L34.4158 101.769Z" fill="#969696"/>
<path d="M34.4161 101.769L33.2655 100.369L20.6064 115.249L35.582 103.198L34.4161 101.769Z" fill="#CFD0D0"/>
<path d="M20.6064 115.249L31.1064 109.537L46.082 97.4839L35.582 103.198L20.6064 115.249Z" fill="#787878"/>
<path d="M35.582 103.197L46.082 97.4836L44.9183 96.0552L34.4161 101.769L35.582 103.197Z" fill="#969696"/>
<path d="M38.3709 106.579L48.873 100.865L44.918 96.0552L34.4159 101.769L38.3709 106.579Z" fill="#99754A"/>
<path d="M32.3115 120.617L42.8137 114.905L48.873 100.866L38.3709 106.579L32.3115 120.617Z" fill="#7A5E3B"/>
<path d="M42.2363 111.28L38.371 106.579L32.3116 120.616L42.2363 111.28Z" fill="#CFD0D0"/>
<path d="M32.3114 120.617L42.8136 114.905L52.7383 105.569L42.2361 111.28L32.3114 120.617Z" fill="#787878"/>
<path d="M42.2361 111.28L52.7383 105.569L48.873 100.866L38.3708 106.579L42.2361 111.28Z" fill="#969696"/>
<path d="M21.8573 133.164L32.3573 127.452L53.9961 107.098L43.4939 112.811L21.8573 133.164Z" fill="#7A5E3B"/>
<path d="M43.4939 112.812L53.9961 107.098L52.7383 105.569L42.2361 111.28L43.4939 112.812Z" fill="#99754A"/>
<path d="M-0.00015378 135.15L27.4836 113.586L21.8573 133.164L43.4961 112.809L42.2383 111.28L32.3136 120.617L38.373 106.579L34.418 101.769L35.5839 103.197L20.6083 115.251L33.2673 100.371L25.1911 90.5493L3.97891 111.521L22.5858 107.625L-0.00015378 135.15ZM26.4839 92.1221L30.4783 96.9849L16.6511 101.951L26.4839 92.1221Z" fill="#E28D49"/>
<path d="M27.547 88.3291L25.1911 90.5472L33.2652 100.369L34.4158 101.769L38.3708 106.579L42.2361 111.28L43.4939 112.812L45.8521 110.593L27.547 88.3291Z" fill="#CFD0D0"/>
<path d="M45.852 110.593L56.3521 104.882L38.0492 82.6152L27.547 88.329L45.852 110.593Z" fill="#969696"/>
<path d="M43.4939 112.812L53.9961 107.098L56.3521 104.882L45.852 110.593L43.4939 112.812Z" fill="#787878"/>
<path d="M33.9456 86.7191L44.4478 81.0075L42.4134 78.5312L31.9112 84.2428L33.9456 86.7191Z" fill="#505050"/>
<path d="M39.3445 93.2923L49.8467 87.5786L44.4479 81.0073L33.9458 86.7189L39.3445 93.2923Z" fill="#505050"/>
<path d="M42.7087 97.3896L53.2109 91.6758L49.8466 87.5786L39.3444 93.2924L42.7087 97.3896Z" fill="#505050"/>
<path d="M47.9785 103.803L58.4785 98.0895L53.211 91.6758L42.7088 97.3895L47.9785 103.803Z" fill="#505050"/>
<path d="M50.1987 106.505L60.6987 100.794L58.4784 98.0898L47.9784 103.804L50.1987 106.505Z" fill="#505050"/>
<path d="M45.8522 110.593L56.3522 104.882L60.6987 100.793L50.1987 106.505L45.8522 110.593Z" fill="#BAB3AC"/>
<path d="M31.9112 84.2427L27.5472 88.3289L45.8522 110.593L50.1987 106.505L47.9784 103.803L42.7087 97.3895L39.3444 93.2924L33.9456 86.7189L31.9112 84.2427Z" fill="#BAB3AC"/>
<mask id="mask0_748_343" style="mask-type:luminance" maskUnits="userSpaceOnUse" x="59" y="90" width="26" height="13">
<path d="M70.3018 96.7269C69.9146 96.8822 69.4443 97.1928 69.0768 97.3941C68.6874 97.6062 68.1668 97.8884 67.7774 98.1006C67.0993 98.4703 66.4212 98.8378 65.7431 99.2075C64.6056 99.8266 63.4681 100.446 62.3306 101.065C61.4884 101.524 60.644 101.981 59.8018 102.441C64.2468 101.224 69.0593 99.2294 74.0862 96.4928L84.5884 90.7812C79.5593 93.5156 74.7468 95.5106 70.3018 96.7269Z" fill="white"/>
</mask>
<g mask="url(#mask0_748_343)">
<path d="M74.0859 96.4928L84.5859 90.7812C83.5469 91.3456 82.5166 91.8794 81.4972 92.3825L70.9972 98.0941C72.0166 97.5909 73.0469 97.0572 74.0859 96.4928Z" fill="#8C3E45"/>
<path d="M70.9976 98.0939L81.4976 92.3823C77.5841 94.3073 73.8282 95.7642 70.3019 96.7289L59.8019 102.44C63.3282 101.474 67.0841 100.019 70.9976 98.0939Z" fill="#904047"/>
</g>
<mask id="mask1_748_343" style="mask-type:luminance" maskUnits="userSpaceOnUse" x="31" y="34" width="28" height="10">
<path d="M41.652 38.0689L31.152 43.7805C36.9795 40.6108 42.7108 39.2414 47.5977 39.9283L58.0977 34.2168C53.2108 33.5299 47.4795 34.8993 41.652 38.0689Z" fill="white"/>
</mask>
<g mask="url(#mask1_748_343)">
<path d="M47.5952 39.9282L58.0952 34.2167C55.4768 33.8492 52.6133 34.0701 49.623 34.8445L39.123 40.5561C42.1133 39.7839 44.9768 39.5607 47.5952 39.9282Z" fill="#944249"/>
<path d="M39.123 40.5582L49.623 34.8467C47.5165 35.3914 45.3465 36.2117 43.1546 37.2901L32.6546 43.0017C34.8487 41.9232 37.0187 41.1029 39.123 40.5582Z" fill="#904047"/>
<path d="M32.6567 43.0016L43.1567 37.29C42.6558 37.5372 42.1549 37.7975 41.6517 38.071L31.1517 43.7825C31.6527 43.5069 32.1558 43.2466 32.6567 43.0016Z" fill="#8C3E45"/>
</g>
<mask id="mask2_748_343" style="mask-type:luminance" maskUnits="userSpaceOnUse" x="36" y="38" width="31" height="38">
<path d="M47.0094 69.5407C50.4963 60.0557 57.2469 49.3567 66.6729 38.8545L56.1729 44.5661C46.7688 55.0442 40.0291 65.717 36.5335 75.1867C40.0225 73.2901 43.5094 71.3914 46.9985 69.4948C43.5094 71.3914 40.0225 73.2901 36.5335 75.1867C36.5247 75.2086 36.5182 75.2304 36.5094 75.2523C39.6572 73.5395 44.6644 72.2532 47.0094 69.5407Z" fill="white"/>
</mask>
<g mask="url(#mask2_748_343)">
<path d="M36.507 75.2523L47.007 69.5407C50.4938 60.0557 57.2445 49.3567 66.6704 38.8545L56.1704 44.5661C46.7445 55.0682 39.9938 65.7673 36.507 75.2523Z" fill="#74343A"/>
</g>
<mask id="mask3_748_343" style="mask-type:luminance" maskUnits="userSpaceOnUse" x="47" y="34" width="20" height="11">
<path d="M56.0415 44.148L66.5415 38.4365C64.2578 36.0587 61.3659 34.6762 58.0978 34.2168L47.5978 39.9284C50.8659 40.3899 53.7556 41.7702 56.0415 44.148Z" fill="white"/>
</mask>
<g mask="url(#mask3_748_343)">
<path d="M56.0415 44.148L66.5415 38.4365C66.3009 38.1849 66.0537 37.9465 65.7999 37.7168L55.2999 43.4284C55.5515 43.658 55.8009 43.8987 56.0415 44.148Z" fill="#873C42"/>
<path d="M55.2979 43.4303L65.7979 37.7187C65.356 37.3206 64.8944 36.9575 64.4154 36.625L53.9154 42.3366C54.3966 42.6669 54.856 43.0322 55.2979 43.4303Z" fill="#8C3E45"/>
<path d="M53.9175 42.3366L64.4175 36.6251C63.794 36.1941 63.1378 35.8157 62.4553 35.4941L51.9553 41.2057C52.6378 41.5273 53.2918 41.9035 53.9175 42.3366Z" fill="#904047"/>
<path d="M51.9531 41.2059L62.4531 35.4943C61.1013 34.8577 59.64 34.4334 58.0956 34.2168L47.5956 39.9284C49.1422 40.1471 50.6013 40.5693 51.9531 41.2059Z" fill="#944249"/>
</g>
<path d="M56.1707 44.5659L66.6729 38.8521L66.5416 38.4365L56.0416 44.1481L56.1707 44.5659Z" fill="#7D383D"/>
<path d="M47.5954 39.9286C35.5226 38.2311 18.272 49.0943 7.21853 68.6461C11.2632 68.2261 15.2182 68.2808 19.0485 68.819C25.2413 69.6896 31.1082 71.8224 36.507 75.2502C39.9938 65.7652 46.7445 55.0661 56.1704 44.564L56.0413 44.1483C53.7554 41.7705 50.8657 40.3902 47.5954 39.9286Z" fill="#D52433"/>
<path d="M39.3442 93.2924L49.8464 87.5787L83.0854 56.3105L72.5854 62.0243L39.3442 93.2924Z" fill="#816F3F"/>
<mask id="mask4_748_343" style="mask-type:luminance" maskUnits="userSpaceOnUse" x="72" y="56" width="12" height="7">
<path d="M83.0858 56.3104C83.2127 56.1923 83.3483 56.0939 83.4927 56.0151L72.9927 61.7267C72.8483 61.8054 72.7105 61.9039 72.5858 62.022C75.7358 60.3092 80.1808 58.4148 83.0858 56.3104Z" fill="white"/>
</mask>
<g mask="url(#mask4_748_343)">
<path d="M72.5858 62.0245L83.0858 56.3129C83.2127 56.1948 83.3483 56.0963 83.4927 56.0176L72.9927 61.7291C72.8483 61.8079 72.7105 61.9063 72.5858 62.0245Z" fill="#857240"/>
</g>
<path d="M42.7089 97.3898L53.2111 91.6761L86.4326 60.4058L75.9304 66.1195L42.7089 97.3898Z" fill="#762F31"/>
<mask id="mask5_748_343" style="mask-type:luminance" maskUnits="userSpaceOnUse" x="72" y="55" width="13" height="7">
<path d="M83.4927 56.0153L72.9927 61.7268C73.3755 61.519 73.8152 61.449 74.2549 61.5103L84.7549 55.7987C84.3152 55.7374 83.8777 55.8075 83.4927 56.0153Z" fill="white"/>
</mask>
<g mask="url(#mask5_748_343)">
<path d="M74.2524 61.5128L84.7524 55.8012C84.4746 55.7618 84.1968 55.775 83.9321 55.845L73.4321 61.5565C73.6968 61.4865 73.9746 61.4734 74.2524 61.5128Z" fill="#9B3D40"/>
<path d="M73.4321 61.5543L83.9321 55.8428C83.8053 55.8756 83.6806 55.9215 83.5624 55.9806L73.0624 61.6921C73.1806 61.6331 73.3053 61.5893 73.4321 61.5543Z" fill="#963C3E"/>
<path d="M73.0625 61.692L83.5625 55.9805C83.5384 55.9914 83.5144 56.0045 83.4925 56.0177L72.9925 61.7292C73.0144 61.7161 73.0384 61.7052 73.0625 61.692Z" fill="#903A3D"/>
</g>
<path d="M74.2525 61.5125C73.6487 61.4272 73.045 61.5913 72.5834 62.0244L39.3444 93.2925L42.7087 97.3897L75.9303 66.1194C76.4006 65.6775 76.6303 65.0519 76.6259 64.3978C76.6215 63.7438 76.3853 63.0569 75.9237 62.4947C75.4622 61.9303 74.8584 61.5978 74.2525 61.5125Z" fill="#CC5155"/>
<mask id="mask6_748_343" style="mask-type:luminance" maskUnits="userSpaceOnUse" x="74" y="55" width="14" height="12">
<path d="M75.9303 66.1192L86.4303 60.4077C86.9006 59.9658 87.1303 59.3402 87.1259 58.6861C87.1215 58.032 86.8853 57.3452 86.4237 56.783C85.9622 56.2208 85.3562 55.8861 84.7525 55.8008L74.2525 61.5123C74.8562 61.5977 75.4622 61.9302 75.9237 62.4945C76.3853 63.0567 76.6215 63.7436 76.6259 64.3977C76.6303 65.0517 76.4006 65.6773 75.9303 66.1192Z" fill="white"/>
</mask>
<g mask="url(#mask6_748_343)">
<path d="M75.9303 66.1193L86.4303 60.4078C86.9006 59.9659 87.1303 59.3403 87.1259 58.6862C87.1237 58.3537 87.0625 58.0146 86.9422 57.6865L76.4422 63.3981C76.5625 63.7262 76.6237 64.0653 76.6259 64.3978C76.6303 65.0518 76.4006 65.6775 75.9303 66.1193Z" fill="#7A3133"/>
<path d="M76.4424 63.3978L86.9424 57.6862C86.8921 57.5506 86.833 57.4171 86.763 57.2881L76.263 62.9996C76.333 63.1287 76.3943 63.2622 76.4424 63.3978Z" fill="#7F3335"/>
<path d="M76.2627 62.9997L86.7627 57.2881C86.7058 57.181 86.6402 57.076 86.568 56.9731L76.068 62.6847C76.1402 62.7853 76.2058 62.8903 76.2627 62.9997Z" fill="#833437"/>
<path d="M76.0679 62.6847L86.5679 56.9731C86.5219 56.9075 86.4738 56.8441 86.4235 56.7828C86.3994 56.7544 86.3754 56.726 86.3513 56.6997L75.8513 62.4113C75.8754 62.4397 75.8994 62.466 75.9235 62.4944C75.976 62.5556 76.0241 62.6191 76.0679 62.6847Z" fill="#883639"/>
<path d="M75.8535 62.4095L86.3535 56.6979C86.277 56.6104 86.196 56.5295 86.1129 56.4551L75.6129 62.1666C75.696 62.241 75.7748 62.322 75.8535 62.4095Z" fill="#8D383B"/>
<path d="M75.6133 62.1664L86.1133 56.4548C86.0214 56.3717 85.9273 56.2973 85.8289 56.2295L75.3289 61.9411C75.4252 62.0089 75.5214 62.0832 75.6133 62.1664Z" fill="#903A3D"/>
<path d="M75.3286 61.9413L85.8286 56.2297C85.7061 56.1444 85.5771 56.0722 85.448 56.0088L74.948 61.7204C75.077 61.7838 75.2039 61.856 75.3286 61.9413Z" fill="#963C3E"/>
<path d="M74.9482 61.7223L85.4482 56.0108C85.2229 55.9036 84.9889 55.8336 84.7548 55.8008L74.2548 61.5123C74.4867 61.5452 74.7207 61.6152 74.9482 61.7223Z" fill="#9B3D40"/>
</g>
<mask id="mask7_748_343" style="mask-type:luminance" maskUnits="userSpaceOnUse" x="74" y="80" width="27" height="17">
<path d="M74.1147 96.4776L84.6169 90.766C89.6919 88.0054 94.9725 84.501 100.306 80.2944L89.8057 86.006C84.4725 90.2126 79.1897 93.7191 74.1147 96.4776Z" fill="white"/>
</mask>
<g mask="url(#mask7_748_343)">
<path d="M74.1145 96.4776L84.6145 90.766C89.6895 88.0054 94.9701 84.501 100.303 80.2944L89.8032 86.006C84.4723 90.2126 79.1895 93.7191 74.1145 96.4776Z" fill="#857240"/>
</g>
<mask id="mask8_748_343" style="mask-type:luminance" maskUnits="userSpaceOnUse" x="89" y="80" width="12" height="7">
<path d="M100.305 80.2942C100.327 80.2767 100.349 80.2592 100.371 80.2417C96.8711 82.147 93.3711 84.0501 89.8689 85.9554C89.847 85.9729 89.8252 85.9905 89.8033 86.008C92.9533 84.293 97.3064 82.263 100.305 80.2942Z" fill="white"/>
</mask>
<g mask="url(#mask8_748_343)">
<path d="M89.8035 86.008L100.303 80.2964C103.565 77.748 106.77 74.9939 109.972 71.9795C119.825 62.7111 127.404 51.9508 132.681 41.8008L122.181 47.5123C116.904 57.6623 109.325 68.4248 99.4722 77.6911C96.2697 80.7033 93.065 83.4595 89.8035 86.008Z" fill="#857240"/>
</g>
<path d="M90.1357 85.8351L100.636 80.1235L100.36 80.2438L89.8579 85.9554L90.1357 85.8351Z" fill="#8F4046"/>
<path d="M90.3567 86.1063L100.859 80.3926L100.636 80.1235L90.1358 85.8351L90.3567 86.1063Z" fill="#8F4046"/>
<mask id="mask9_748_343" style="mask-type:luminance" maskUnits="userSpaceOnUse" x="64" y="80" width="40" height="53">
<path d="M64.9204 132.989L75.4226 127.277C97.9561 115.016 109.394 92.601 100.859 80.3926L90.3589 86.1041C98.8945 98.3126 87.4561 120.73 64.9204 132.989Z" fill="white"/>
</mask>
<g mask="url(#mask9_748_343)">
<path d="M64.9202 132.989L75.4202 127.277C95.9192 116.126 107.237 96.5693 102.687 83.9365L92.1874 89.6481C96.7374 102.279 85.4193 121.837 64.9202 132.989Z" fill="#74343A"/>
<path d="M92.1875 89.6481L102.688 83.9365C102.436 83.2409 102.138 82.565 101.791 81.9131L91.2906 87.6246C91.6384 88.2765 91.9381 88.9525 92.1875 89.6481Z" fill="#7A363C"/>
<path d="M91.2905 87.6245L101.791 81.9129C101.511 81.3901 101.2 80.8826 100.859 80.3926L90.3586 86.1041C90.6999 86.5963 91.0105 87.1038 91.2905 87.6245Z" fill="#7E383E"/>
</g>
<mask id="mask10_748_343" style="mask-type:luminance" maskUnits="userSpaceOnUse" x="82" y="37" width="15" height="16">
<path d="M96.7749 46.7269C94.4824 43.9357 93.3318 40.5341 93.3252 37.29C89.8252 39.1932 86.3252 41.0985 82.8252 43.0016C82.8318 46.2457 83.9802 49.6472 86.2749 52.4385C89.4227 50.7257 93.6249 48.4397 96.7749 46.7269Z" fill="white"/>
</mask>
<g mask="url(#mask10_748_343)">
<path d="M86.2729 52.4386L96.7729 46.727C96.5236 46.423 96.2895 46.1146 96.0664 45.7974L85.5664 51.5089C85.7895 51.8261 86.0236 52.1367 86.2729 52.4386Z" fill="#948148"/>
<path d="M85.5664 51.5086L96.0664 45.7971C95.7164 45.2983 95.3992 44.7821 95.1148 44.2549L84.6148 49.9664C84.8992 50.4936 85.2164 51.0099 85.5664 51.5086Z" fill="#8F7B45"/>
<path d="M84.6167 49.9665L95.1167 44.2549C94.7733 43.6162 94.4779 42.9599 94.2351 42.2949L83.7351 48.0065C83.9779 48.6737 84.2733 49.3277 84.6167 49.9665Z" fill="#8A7743"/>
<path d="M83.7331 48.0066L94.2331 42.2951C93.6293 40.6544 93.3274 38.9504 93.3231 37.2901C93.3165 34.046 94.454 30.9616 96.7378 28.8026C97.3612 28.2163 98.0371 27.7307 98.7524 27.3413L88.2524 33.0529C87.5371 33.4422 86.8612 33.9279 86.2378 34.5141C83.954 36.6732 82.8165 39.7576 82.8231 43.0016C82.8274 44.6641 83.1315 46.366 83.7331 48.0066Z" fill="#857240"/>
</g>
<mask id="mask11_748_343" style="mask-type:luminance" maskUnits="userSpaceOnUse" x="86" y="46" width="20" height="12">
<path d="M105.059 51.5988C102.06 51.1767 99.061 49.5207 96.7728 46.7251L86.2728 52.4367C88.561 55.2323 91.56 56.8882 94.5591 57.3104C98.0591 55.4073 101.559 53.5042 105.059 51.5988Z" fill="white"/>
</mask>
<g mask="url(#mask11_748_343)">
<path d="M98.6455 57.0983L109.146 51.3867C107.829 51.7279 106.444 51.7958 105.059 51.6011C103.898 51.437 102.738 51.0892 101.618 50.562L91.1183 56.2736C92.2383 56.8008 93.3977 57.1486 94.5593 57.3126C95.9439 57.5073 97.3308 57.4395 98.6455 57.0983Z" fill="#A89153"/>
<path d="M91.1182 56.2734L101.618 50.5618C100.975 50.2577 100.343 49.8946 99.7347 49.4746L89.2347 55.1862C89.8428 55.6084 90.475 55.9693 91.1182 56.2734Z" fill="#A38D4F"/>
<path d="M89.2349 55.1866L99.7349 49.475C99.2514 49.1403 98.7833 48.7706 98.3327 48.3638L87.8327 54.0753C88.2833 54.4822 88.7536 54.8519 89.2349 55.1866Z" fill="#9F894D"/>
<path d="M87.8325 54.0751L98.3325 48.3635C97.9213 47.9938 97.5253 47.5935 97.1447 47.1626L86.6447 52.8742C87.0231 53.3051 87.4213 53.7054 87.8325 54.0751Z" fill="#99844A"/>
<path d="M86.645 52.8764L97.145 47.1648C97.0203 47.0226 96.8956 46.8782 96.7753 46.7295L86.2753 52.4411C86.3956 52.5876 86.5181 52.7342 86.645 52.8764Z" fill="#948148"/>
</g>
<mask id="mask12_748_343" style="mask-type:luminance" maskUnits="userSpaceOnUse" x="94" y="51" width="15" height="7">
<path d="M108.2 51.5811C107.174 51.7429 106.116 51.7473 105.059 51.5986C101.559 53.5017 98.0589 55.407 94.5589 57.3101C95.6155 57.4589 96.6743 57.4545 97.7002 57.2926C101.2 55.3895 104.7 53.4864 108.2 51.5811Z" fill="white"/>
</mask>
<g mask="url(#mask12_748_343)">
<path d="M98.645 57.0978L109.145 51.3862C107.828 51.7275 106.443 51.7953 105.059 51.6006C103.897 51.4365 102.738 51.0887 101.618 50.5615L91.1178 56.2731C92.2378 56.8003 93.3972 57.1481 94.5588 57.3122C95.9435 57.5068 97.3303 57.439 98.645 57.0978Z" fill="#A89153"/>
</g>
<mask id="mask13_748_343" style="mask-type:luminance" maskUnits="userSpaceOnUse" x="82" y="28" width="15" height="16">
<path d="M93.3255 37.2902C93.319 34.0462 94.4565 30.9618 96.7402 28.8027C93.2402 30.7059 89.7402 32.6112 86.2402 34.5143C83.9565 36.6734 82.819 39.7577 82.8255 43.0018C86.3255 41.0987 89.8255 39.1934 93.3255 37.2902Z" fill="white"/>
</mask>
<g mask="url(#mask13_748_343)">
<path d="M83.7336 48.0066L94.2336 42.2951C93.6298 40.6544 93.3279 38.9504 93.3236 37.2901C93.317 34.046 94.4545 30.9616 96.7382 28.8026C97.3617 28.2163 98.0376 27.7307 98.7529 27.3413L88.2529 33.0529C87.5376 33.4422 86.8617 33.9279 86.2382 34.5141C83.9545 36.6732 82.817 39.7576 82.8236 43.0016C82.8279 44.6641 83.132 46.366 83.7336 48.0066Z" fill="#857240"/>
</g>
<mask id="mask14_748_343" style="mask-type:luminance" maskUnits="userSpaceOnUse" x="85" y="31" width="14" height="20">
<path d="M98.8663 31.3906C95.3663 33.2938 91.8663 35.1991 88.3663 37.1022C84.9779 40.3091 84.9888 46.2831 88.3904 50.4459L98.8926 44.7344C95.491 40.5738 95.4801 34.5975 98.8663 31.3906Z" fill="white"/>
</mask>
<g mask="url(#mask14_748_343)">
<path d="M88.3901 50.4478L98.8901 44.7363C98.7108 44.5175 98.5401 44.2922 98.3804 44.0625L87.8804 49.7741C88.0423 50.0038 88.2108 50.2269 88.3901 50.4478Z" fill="#883639"/>
<path d="M87.8809 49.7743L98.3809 44.0627C98.1184 43.6887 97.8821 43.3037 97.6699 42.9077L87.1699 48.6193C87.3821 49.013 87.6184 49.4002 87.8809 49.7743Z" fill="#833437"/>
<path d="M87.1699 48.6191L97.6699 42.9075C97.414 42.4306 97.193 41.9385 97.0115 41.4419L86.5115 47.1535C86.693 47.6522 86.914 48.1422 87.1699 48.6191Z" fill="#7F3335"/>
<path d="M86.5113 47.1536L97.0113 41.442C95.6856 37.8305 96.3025 33.8186 98.8685 31.3927C99.33 30.9617 99.8288 30.603 100.356 30.3164L89.856 36.028C89.3288 36.3145 88.8278 36.6733 88.3685 37.1042C85.8025 39.5302 85.1856 43.542 86.5113 47.1536Z" fill="#7A3133"/>
</g>
<mask id="mask15_748_343" style="mask-type:luminance" maskUnits="userSpaceOnUse" x="88" y="30" width="13" height="8">
<path d="M98.8685 31.3907C99.33 30.9598 99.8288 30.601 100.356 30.3145L89.856 36.026C89.3288 36.3126 88.8278 36.6713 88.3685 37.1023C89.4338 36.5226 90.4991 35.9429 91.5644 35.3632C93.9969 34.0398 96.4316 32.7163 98.8685 31.3907C98.8663 31.3907 98.8663 31.3907 98.8685 31.3907Z" fill="white"/>
</mask>
<g mask="url(#mask15_748_343)">
<path d="M86.5113 47.1541L97.0113 41.4425C95.6856 37.831 96.3025 33.8191 98.8685 31.3931C99.33 30.9622 99.8288 30.6035 100.356 30.3169L89.856 36.0285C89.3288 36.315 88.8278 36.6738 88.3685 37.1047C85.8025 39.5306 85.1856 43.5425 86.5113 47.1541Z" fill="#7A3133"/>
</g>
<mask id="mask16_748_343" style="mask-type:luminance" maskUnits="userSpaceOnUse" x="97" y="50" width="15" height="8">
<path d="M111.346 50.5181C110.357 51.0562 109.297 51.4084 108.201 51.5812C104.701 53.4843 101.201 55.3896 97.7006 57.2928C98.7965 57.1199 99.8574 56.7656 100.846 56.2296C103.996 54.5168 108.196 52.2309 111.346 50.5181Z" fill="white"/>
</mask>
<g mask="url(#mask16_748_343)">
<path d="M100.846 56.2296L111.346 50.5181C111.23 50.5815 111.112 50.6428 110.994 50.6996L100.494 56.4112C100.612 56.3543 100.73 56.2931 100.846 56.2296Z" fill="#9F894D"/>
<path d="M100.494 56.4113L110.994 50.6997C110.399 50.9928 109.78 51.2203 109.146 51.3844L98.6457 57.096C99.2801 56.9319 99.8991 56.7044 100.494 56.4113Z" fill="#A38D4F"/>
<path d="M98.6455 57.0983L109.146 51.3867C107.829 51.7279 106.444 51.7958 105.059 51.6011C103.898 51.437 102.738 51.0892 101.618 50.562L91.1183 56.2736C92.2383 56.8008 93.3977 57.1486 94.5593 57.3126C95.9439 57.5073 97.3308 57.4395 98.6455 57.0983Z" fill="#A89153"/>
</g>
<mask id="mask17_748_343" style="mask-type:luminance" maskUnits="userSpaceOnUse" x="88" y="44" width="22" height="11">
<path d="M105.079 48.3676C102.841 48.0526 100.603 46.8166 98.8925 44.7363L88.3925 50.4479C90.1031 52.5304 92.3409 53.7663 94.5787 54.0791C96.204 54.3066 97.8293 54.0507 99.249 53.2763L109.749 47.5648C108.329 48.337 106.704 48.5951 105.079 48.3676Z" fill="white"/>
</mask>
<g mask="url(#mask17_748_343)">
<path d="M99.249 53.2765L109.749 47.5649C109.664 47.6109 109.576 47.6568 109.489 47.7006L98.9887 53.4121C99.0762 53.3684 99.1615 53.3246 99.249 53.2765Z" fill="#903A3D"/>
<path d="M98.9888 53.4118L109.489 47.7002C109.049 47.9168 108.59 48.0852 108.119 48.2077L97.6194 53.9193C98.0875 53.7968 98.5469 53.6283 98.9888 53.4118Z" fill="#963C3E"/>
<path d="M97.6172 53.9193L108.117 48.2077C107.139 48.4614 106.109 48.5118 105.077 48.3674C104.21 48.2449 103.342 47.9846 102.504 47.5908L92.0041 53.3024C92.8419 53.6961 93.7081 53.9564 94.5766 54.0789C95.6091 54.2233 96.6394 54.173 97.6172 53.9193Z" fill="#9B3D40"/>
<path d="M92.0063 53.3027L102.506 47.5911C102.025 47.3636 101.553 47.0923 101.095 46.7773L90.5954 52.4889C91.0526 52.8039 91.5251 53.0752 92.0063 53.3027Z" fill="#963C3E"/>
<path d="M90.5952 52.4886L101.095 46.7771C100.734 46.5277 100.382 46.2499 100.045 45.9458L89.5452 51.6574C89.8843 51.9614 90.2343 52.2392 90.5952 52.4886Z" fill="#903A3D"/>
<path d="M89.5454 51.6575L100.045 45.9459C99.737 45.6681 99.4395 45.3684 99.1551 45.0469L88.6551 50.7584C88.9395 51.08 89.237 51.3797 89.5454 51.6575Z" fill="#8D383B"/>
<path d="M88.6548 50.7585L99.1548 45.047C99.0651 44.9463 98.9776 44.8413 98.8901 44.7363L88.3901 50.4479C88.4776 50.5529 88.5651 50.6557 88.6548 50.7585Z" fill="#883639"/>
</g>
<mask id="mask18_748_343" style="mask-type:luminance" maskUnits="userSpaceOnUse" x="86" y="27" width="13" height="8">
<path d="M96.7421 28.8026C97.3656 28.2163 98.0415 27.7307 98.7568 27.3413L88.2568 33.0529C87.5415 33.4422 86.8656 33.9279 86.2421 34.5141C87.9921 33.5626 89.7422 32.611 91.4922 31.6572C91.6978 31.5457 91.9734 31.3947 92.1812 31.2832C92.5903 31.0601 93.1371 30.7626 93.5462 30.5416C94.2025 30.1851 94.8609 29.8263 95.5172 29.4697C95.8825 29.2685 96.4009 29.0476 96.7421 28.8026Z" fill="white"/>
</mask>
<g mask="url(#mask18_748_343)">
<path d="M83.7331 48.0066L94.2331 42.2951C93.6293 40.6544 93.3274 38.9504 93.3231 37.2901C93.3165 34.046 94.454 30.9616 96.7378 28.8026C97.3612 28.2163 98.0371 27.7307 98.7524 27.3413L88.2524 33.0529C87.5371 33.4422 86.8612 33.9279 86.2378 34.5141C83.954 36.6732 82.8165 39.7576 82.8231 43.0016C82.8274 44.6641 83.1315 46.366 83.7331 48.0066Z" fill="#857240"/>
</g>
<mask id="mask19_748_343" style="mask-type:luminance" maskUnits="userSpaceOnUse" x="89" y="29" width="17" height="8">
<path d="M100.356 30.3142L89.8561 36.0258C91.2802 35.2514 92.9121 34.9933 94.5439 35.223L105.044 29.5114C103.412 29.2817 101.78 29.5398 100.356 30.3142Z" fill="white"/>
</mask>
<g mask="url(#mask19_748_343)">
<path d="M94.5439 35.2226L105.044 29.511C104.007 29.3644 102.972 29.4169 101.99 29.6707L91.4902 35.3822C92.4724 35.1285 93.5071 35.0782 94.5439 35.2226Z" fill="#507F9B"/>
<path d="M91.4878 35.3825L101.988 29.6709C101.515 29.7934 101.056 29.9618 100.614 30.1806L90.114 35.8922C90.5559 35.6756 91.0175 35.505 91.4878 35.3825Z" fill="#4D7B96"/>
<path d="M90.1143 35.8922L100.614 30.1807C100.527 30.2244 100.439 30.2682 100.354 30.3163L89.8539 36.0279C89.9414 35.9797 90.0268 35.936 90.1143 35.8922Z" fill="#4A7790"/>
</g>
<mask id="mask20_748_343" style="mask-type:luminance" maskUnits="userSpaceOnUse" x="94" y="29" width="20" height="25">
<path d="M99.2489 53.2765L109.749 47.5649C110.283 47.274 110.788 46.9108 111.254 46.4712C114.642 43.2643 114.631 37.288 111.23 33.1274C109.519 31.0558 107.281 29.8243 105.044 29.5093L94.5435 35.2208C96.7813 35.5358 99.0192 36.7652 100.73 38.839C104.131 42.9996 104.142 48.9758 100.754 52.1827C100.288 52.6224 99.7826 52.9855 99.2489 53.2765Z" fill="white"/>
</mask>
<g mask="url(#mask20_748_343)">
<path d="M99.2487 53.2763L109.749 47.5648C110.282 47.2738 110.788 46.9107 111.254 46.4732C113.817 44.0473 114.434 40.0354 113.111 36.4238L102.611 42.1354C103.936 45.747 103.32 49.7588 100.754 52.1848C100.288 52.6223 99.7824 52.9854 99.2487 53.2763Z" fill="#3E647A"/>
<path d="M102.611 42.1357L113.111 36.4241C112.927 35.9254 112.708 35.4354 112.452 34.9585L101.952 40.6701C102.208 41.1469 102.427 41.6369 102.611 42.1357Z" fill="#42687F"/>
<path d="M101.95 40.6678L112.45 34.9563C112.238 34.5625 112.002 34.1753 111.739 33.8013L101.239 39.5128C101.502 39.8891 101.738 40.2741 101.95 40.6678Z" fill="#446C83"/>
<path d="M101.239 39.5151L111.739 33.8036C111.58 33.5739 111.409 33.3507 111.23 33.1298C111.149 33.0314 111.066 32.9329 110.98 32.8389L100.48 38.5504C100.563 38.6445 100.646 38.7429 100.73 38.8414C100.909 39.0601 101.08 39.2854 101.239 39.5151Z" fill="#456F88"/>
<path d="M100.48 38.5503L110.98 32.8388C110.696 32.5172 110.401 32.2197 110.092 31.9419L99.5923 37.6535C99.9008 37.9313 100.198 38.2288 100.48 38.5503Z" fill="#47748D"/>
<path d="M99.5942 37.6534L110.094 31.9418C109.755 31.6378 109.403 31.36 109.042 31.1084L98.5421 36.82C98.903 37.0715 99.2552 37.3493 99.5942 37.6534Z" fill="#4A7790"/>
<path d="M98.54 36.82L109.04 31.1084C108.583 30.7934 108.11 30.52 107.627 30.2925L97.1269 36.004C97.6103 36.2315 98.0829 36.505 98.54 36.82Z" fill="#4D7B96"/>
<path d="M97.1269 36.0042L107.627 30.2927C106.787 29.8967 105.914 29.6342 105.041 29.5117L94.5413 35.2233C95.4141 35.3458 96.2869 35.6083 97.1269 36.0042Z" fill="#507F9B"/>
</g>
<path d="M94.5435 35.2229C92.3057 34.9079 90.0701 35.5095 88.366 37.102C84.9776 40.3088 84.9885 46.2851 88.3901 50.4457C90.1007 52.5282 92.3385 53.7642 94.5764 54.077C96.8142 54.3898 99.0498 53.7838 100.754 52.1826C104.142 48.9757 104.131 42.9995 100.73 38.8388C99.0192 36.7695 96.7792 35.5379 94.5435 35.2229Z" fill="#DFE0DF"/>
<mask id="mask21_748_343" style="mask-type:luminance" maskUnits="userSpaceOnUse" x="88" y="26" width="29" height="31">
<path d="M100.846 56.2294L111.346 50.5179C112.068 50.1241 112.753 49.6341 113.38 49.0413C115.655 46.891 116.793 43.8154 116.789 40.5779C116.784 37.3404 115.64 33.9388 113.348 31.1366C111.055 28.3454 108.045 26.6872 105.037 26.265C102.85 25.9566 100.662 26.3044 98.7548 27.3413L88.2548 33.0529C90.1623 32.0138 92.3498 31.6682 94.5373 31.9766C97.5451 32.3988 100.555 34.0569 102.848 36.8482C105.14 39.6504 106.286 43.0519 106.289 46.2894C106.293 49.5269 105.153 52.6025 102.88 54.7529C102.25 55.3457 101.568 55.8379 100.846 56.2294Z" fill="white"/>
</mask>
<g mask="url(#mask21_748_343)">
<path d="M100.846 56.2298L111.346 50.5182C112.068 50.1245 112.753 49.6345 113.38 49.0416C115.655 46.8913 116.793 43.8157 116.789 40.5782C116.786 38.9157 116.484 37.2095 115.879 35.5645L105.379 41.276C105.982 42.921 106.286 44.6273 106.289 46.2898C106.293 49.5273 105.153 52.6029 102.88 54.7532C102.25 55.346 101.568 55.8382 100.846 56.2298Z" fill="#7A3133"/>
<path d="M105.381 41.276L115.881 35.5645C115.636 34.8973 115.341 34.2388 114.997 33.6001L104.497 39.3117C104.841 39.9526 105.136 40.6088 105.381 41.276Z" fill="#7F3335"/>
<path d="M104.495 39.3116L114.995 33.6C114.71 33.0706 114.391 32.5544 114.041 32.0513L103.541 37.7628C103.893 38.266 104.21 38.7822 104.495 39.3116Z" fill="#833437"/>
<path d="M103.541 37.7628L114.041 32.0512C113.822 31.7406 113.593 31.4343 113.348 31.1368C113.232 30.9946 113.114 30.8568 112.995 30.7212L102.495 36.4328C102.616 36.5684 102.732 36.7062 102.848 36.8484C103.09 37.1459 103.322 37.4521 103.541 37.7628Z" fill="#883639"/>
<path d="M102.493 36.435L112.993 30.7234C112.613 30.2925 112.217 29.8921 111.803 29.5225L101.303 35.234C101.717 35.6037 102.115 36.004 102.493 36.435Z" fill="#8D383B"/>
<path d="M101.306 35.232L111.806 29.5204C111.353 29.1113 110.88 28.7395 110.397 28.4048L99.8969 34.1163C100.38 34.4532 100.853 34.8251 101.306 35.232Z" fill="#903A3D"/>
<path d="M99.8965 34.1183L110.396 28.4067C109.784 27.9824 109.15 27.6192 108.502 27.313L98.0021 33.0246C98.6496 33.3286 99.284 33.6939 99.8965 34.1183Z" fill="#963C3E"/>
<path d="M98.0024 33.0226L108.502 27.3111C107.376 26.7795 106.206 26.4295 105.037 26.2655C103.648 26.0708 102.259 26.1386 100.942 26.4798L90.4424 32.1914C91.7593 31.8501 93.1484 31.7823 94.5374 31.977C95.7056 32.1411 96.8737 32.4933 98.0024 33.0226Z" fill="#9B3D40"/>
<path d="M90.4424 32.1911L100.942 26.4795C100.31 26.6436 99.6933 26.8711 99.1027 27.162L88.6027 32.8736C89.1955 32.5826 89.8102 32.3551 90.4424 32.1911Z" fill="#963C3E"/>
<path d="M88.6025 32.8737L99.1025 27.1621C98.9844 27.219 98.8685 27.2802 98.7525 27.3437L88.2525 33.0552C88.3685 32.9918 88.4844 32.9305 88.6025 32.8737Z" fill="#903A3D"/>
</g>
<mask id="mask22_748_343" style="mask-type:luminance" maskUnits="userSpaceOnUse" x="89" y="41" width="44" height="45">
<path d="M109.974 71.9776C119.827 62.7091 127.406 51.9488 132.683 41.7988L122.183 47.5104C116.906 57.6604 109.327 68.4229 99.4742 77.6891C96.2914 80.6838 93.1086 83.4204 89.8711 85.9557C93.3711 84.0526 96.8711 82.1473 100.373 80.2441C103.609 77.7088 106.791 74.9723 109.974 71.9776Z" fill="white"/>
</mask>
<g mask="url(#mask22_748_343)">
<path d="M89.803 86.0085L100.303 80.2969C103.565 77.7485 106.769 74.9944 109.972 71.98C119.824 62.7116 127.404 51.9513 132.68 41.8013L122.18 47.5128C116.904 57.6628 109.324 68.4253 99.4717 77.6916C96.2692 80.7038 93.0645 83.46 89.803 86.0085Z" fill="#CFD0D0"/>
</g>
<path d="M74.2523 61.5126C74.856 61.5979 75.462 61.9304 75.9235 62.4948C76.3851 63.057 76.6213 63.7439 76.6257 64.3979C76.6301 65.052 76.4004 65.6776 75.9301 66.1195L42.7085 97.3898L47.976 103.804C51.4585 104.112 55.4551 103.659 59.7623 102.454C68.742 99.9929 79.172 94.3907 89.801 86.0082C93.0626 83.4598 96.2673 80.7057 99.4698 77.6914C109.322 68.4229 116.902 57.6626 122.178 47.5126L95.261 14.7373C85.6032 19.1736 75.1185 25.9439 65.3951 35.0898C62.0985 38.1917 59.0229 41.3417 56.1879 44.507C46.7445 55.0661 39.9938 65.7651 36.5617 75.1386C34.9823 79.3561 34.1226 83.2192 33.9454 86.717L39.3442 93.2904L72.5854 62.0245C73.0448 61.5914 73.6485 61.4273 74.2523 61.5126ZM86.2726 52.4389C83.9801 49.6476 82.8295 46.2461 82.8229 43.002C82.8163 39.7579 83.9538 36.6736 86.2376 34.5145C88.5213 32.3664 91.527 31.5548 94.5348 31.977C97.5426 32.3992 100.553 34.0573 102.845 36.8486C105.138 39.6507 106.284 43.0523 106.286 46.2898C106.29 49.5273 105.151 52.6029 102.878 54.7532C100.581 56.9145 97.5688 57.7348 94.5567 57.3126C91.5598 56.8904 88.5607 55.2345 86.2726 52.4389Z" fill="#E3E1E3"/>
<path d="M90.1359 85.8354L89.8603 85.9558C79.1765 94.3908 68.7444 99.9929 59.8019 102.439L59.0472 102.87C63.0678 112.814 63.7897 123.666 61.3944 134.779C86.24 123.038 99.33 98.9342 90.359 86.1045L90.1359 85.8354Z" fill="#D52432"/>
<path d="M86.2399 34.5145C83.9561 36.6735 82.8186 39.7579 82.8252 43.002C82.8318 46.246 83.9824 49.6476 86.2749 52.4389C88.563 55.2345 91.5621 56.8904 94.5611 57.3126C97.5733 57.7348 100.586 56.9145 102.882 54.7532C105.157 52.6029 106.295 49.5273 106.291 46.2898C106.286 43.0523 105.142 39.6507 102.85 36.8485C100.557 34.0573 97.5471 32.3992 94.5393 31.977C91.5293 31.5548 88.5236 32.3664 86.2399 34.5145ZM88.3902 50.4482C84.9886 46.2876 84.9777 40.3114 88.3661 37.1045C90.0702 35.512 92.3058 34.9104 94.5436 35.2254C96.7815 35.5404 99.0193 36.7698 100.73 38.8435C104.131 43.0042 104.142 48.9804 100.754 52.1873C99.0499 53.7885 96.8143 54.3967 94.5765 54.0817C92.3408 53.7645 90.1008 52.5285 88.3902 50.4482Z" fill="#A2A2A3"/>
<mask id="mask23_748_343" style="mask-type:luminance" maskUnits="userSpaceOnUse" x="89" y="9" width="17" height="9">
<path d="M99.6824 12.0748L89.1824 17.7863C91.2343 16.6707 93.2665 15.6535 95.2615 14.737L105.764 9.02539C103.766 9.94195 101.734 10.957 99.6824 12.0748Z" fill="white"/>
</mask>
<g mask="url(#mask23_748_343)">
<path d="M95.2612 14.737L105.761 9.02539C104.98 9.38414 104.195 9.7582 103.403 10.1476L92.9031 15.8591C93.695 15.4698 94.4803 15.0957 95.2612 14.737Z" fill="#A38D4F"/>
<path d="M92.9033 15.859L103.403 10.1475C102.172 10.7534 100.931 11.3965 99.6802 12.0768L89.1802 17.7884C90.4314 17.1059 91.6739 16.4628 92.9033 15.859Z" fill="#9F894D"/>
</g>
<path d="M122.18 47.5103L132.683 41.7987L105.761 9.02344L95.2611 14.7372L122.18 47.5103Z" fill="#A28C50"/>
<mask id="mask24_748_343" style="mask-type:luminance" maskUnits="userSpaceOnUse" x="95" y="4" width="41" height="11">
<path d="M125.495 11.2021L135.995 5.49059C129.769 4.61559 117.178 3.81496 105.761 9.02559L95.2612 14.7371C106.678 9.52652 119.269 10.3271 125.495 11.2021Z" fill="white"/>
</mask>
<g mask="url(#mask24_748_343)">
<path d="M125.495 11.2026L135.995 5.49108C131.038 4.79545 122.049 4.14576 112.831 6.5367L102.331 12.2483C111.552 9.85733 120.54 10.5048 125.495 11.2026Z" fill="#505E67"/>
<path d="M102.331 12.2482L112.831 6.53662C110.469 7.14912 108.091 7.96287 105.761 9.026L95.2611 14.7376C97.5907 13.6744 99.9686 12.8607 102.331 12.2482Z" fill="#4E5B64"/>
</g>
<mask id="mask25_748_343" style="mask-type:luminance" maskUnits="userSpaceOnUse" x="125" y="5" width="15" height="7">
<path d="M129.273 11.8714L139.775 6.15766C139.335 6.05703 137.992 5.77047 135.997 5.48828L125.497 11.1998C127.492 11.482 128.835 11.7708 129.273 11.8714Z" fill="white"/>
</mask>
<g mask="url(#mask25_748_343)">
<path d="M129.272 11.8714L139.772 6.15984C139.335 6.05703 137.992 5.77047 135.997 5.48828L125.497 11.1998C127.492 11.482 128.835 11.7708 129.272 11.8714Z" fill="#505E67"/>
</g>
<mask id="mask26_748_343" style="mask-type:luminance" maskUnits="userSpaceOnUse" x="122" y="6" width="19" height="42">
<path d="M122.163 47.4885L132.665 41.777C140.698 26.3398 140.057 8.31039 139.941 6.36133L129.441 12.0729C129.555 14.022 130.196 32.0513 122.163 47.4885Z" fill="white"/>
</mask>
<g mask="url(#mask26_748_343)">
<path d="M122.163 47.4885L132.663 41.777C140.695 26.3398 140.054 8.31039 139.939 6.36133L129.439 12.0729C129.554 14.022 130.195 32.0513 122.163 47.4885Z" fill="#3F4A51"/>
</g>
<path d="M125.495 11.202C119.269 10.327 106.678 9.52639 95.2615 14.737L122.163 47.4883C130.196 32.0511 129.555 14.0217 129.439 12.0726L129.273 11.8692C128.835 11.7708 127.492 11.482 125.495 11.202Z" fill="#D52A44"/>
<path d="M129.439 12.0727L139.941 6.36115L139.775 6.15771L129.272 11.8715L129.439 12.0727Z" fill="#4D5A63"/>
</g>
<defs>
<clipPath id="clip0_748_343">
<rect width="140" height="140" fill="white" transform="matrix(-1 0 0 1 140 0)"/>
</clipPath>
</defs>
</svg>
